# xmcd CD database file
#
# Track frame offsets:
#	150
#	19472
#	37520
#	50852
#	63782
#	84222
#	97947
#	118145
#	132017
#	150012
#	172050
#	190805
#
# Disc length: 2794 seconds
#
# Revision: 0
# Processed by: cddbd v1.4PL0 Copyright (c) Steve Scherf et al.
# Submitted via: CDex 1.40Release
#
DISCID=8a0ae80c
DTITLE=The Keller Brothers Band - 38th and Bailey to Chicago and East 16th
DYEAR=2001
DGENRE=Blues
TTITLE0=Just Want Enough
TTITLE1=Sailin'
TTITLE2=Here We Go
TTITLE3=Listen
TTITLE4=She's Gone
TTITLE5=Time
TTITLE6=Thought Of You
TTITLE7=Like You Said You Would
TTITLE8=Day You Walked
TTITLE9=Can't Have It All
TTITLE10=Cold Cold Cold
TTITLE11=Birds
EXTD=YEAR: 2001 ID3G: 0
EXTT0=
EXTT1=
EXTT2=
EXTT3=
EXTT4=
EXTT5=
EXTT6=
EXTT7=
EXTT8=
EXTT9=
EXTT10=
EXTT11=
PLAYORDER=
